<svg xmlns="http://www.w3.org/2000/svg" xmlns:xlink="http://www.w3.org/1999/xlink" width="886" height="250" viewBox="0 0 886 250">
  <defs>
    <clipPath id="clip-xoxo_logo">
      <rect width="886" height="250"/>
    </clipPath>
  </defs>
  <g id="xoxo_logo" data-name="xoxo logo" clip-path="url(#clip-xoxo_logo)">
    <circle id="Ellipse_1" data-name="Ellipse 1" cx="125" cy="125" r="125" transform="translate(210)" fill="#35bdd0"/>
    <path id="Polygon_2" data-name="Polygon 2" d="M124.106,1.789a1,1,0,0,1,1.789,0L249.276,248.553a1,1,0,0,1-.894,1.447H1.618a1,1,0,0,1-.894-1.447Z" fill="#e03b8b"/>
    <circle id="Ellipse_2" data-name="Ellipse 2" cx="125" cy="125" r="125" transform="translate(636)" fill="#35bdd0"/>
    <path id="Polygon_3" data-name="Polygon 3" d="M124.106,1.789a1,1,0,0,1,1.789,0L249.276,248.553a1,1,0,0,1-.894,1.447H1.618a1,1,0,0,1-.894-1.447Z" transform="translate(426)" fill="#e03b8b"/>
  </g>
</svg>
